<svg xmlns="http://www.w3.org/2000/svg" width="30" height="30" viewBox="0 0 30 30">
  <path id="stars-light" d="M29.827,12.834,27.5,11.863l-.97-2.328a.312.312,0,0,0-.559,0L25,11.863l-2.327.971a.313.313,0,0,0,0,.559L25,14.365l.97,2.328a.312.312,0,0,0,.559,0l.97-2.328,2.327-.971a.313.313,0,0,0,0-.559Zm-8.482,2.815-6.148-.9-2.749-5.58a1.332,1.332,0,0,0-1.207-.749,1.313,1.313,0,0,0-1.2.749l-2.749,5.58-6.142.9a1.351,1.351,0,0,0-.744,2.3l4.448,4.339L3.8,28.419A1.348,1.348,0,0,0,5.124,30a1.324,1.324,0,0,0,.626-.157l5.5-2.893,5.5,2.893a1.37,1.37,0,0,0,.621.157,1.353,1.353,0,0,0,1.33-1.575l-1.049-6.13,4.448-4.339A1.356,1.356,0,0,0,21.346,15.649Zm-5.714,5.989,1.031,6.044-5.421-2.858L5.822,27.682l1.031-6.044L2.476,17.353l6.058-.884,2.714-5.5,2.707,5.5,6.06.884ZM24.8,4.765,21.949,3.341,20.526.479a.974.974,0,0,0-1.677,0l-1.423,2.85L14.579,4.754a.94.94,0,0,0-.516.838.965.965,0,0,0,.516.85l2.847,1.425,1.423,2.85a.942.942,0,0,0,.839.521.93.93,0,0,0,.839-.521l1.423-2.85L24.8,6.442a.939.939,0,0,0,0-1.677ZM20.83,6.325a.949.949,0,0,0-.421.422L19.687,8.2l-.721-1.448a.982.982,0,0,0-.421-.422L17.1,5.6l1.447-.727a.944.944,0,0,0,.421-.422L19.687,3l.721,1.448a.972.972,0,0,0,.421.422l1.447.727Z" transform="translate(0 0)"/>
</svg>
