<svg xmlns="http://www.w3.org/2000/svg" width="22" height="22" viewBox="0 0 22 22">
  <path id="user" d="M1.572,22A1.571,1.571,0,0,1,0,20.429a6.286,6.286,0,0,1,6.286-6.284h.233a5.424,5.424,0,0,1,1.74.332,8.526,8.526,0,0,0,5.482,0,5.449,5.449,0,0,1,1.743-.333h.231A6.285,6.285,0,0,1,22,20.429,1.571,1.571,0,0,1,20.428,22Zm0-1.571H20.428a4.719,4.719,0,0,0-4.714-4.714h-.231a3.91,3.91,0,0,0-1.239.251,10.115,10.115,0,0,1-6.49,0,3.893,3.893,0,0,0-1.236-.25H6.286A4.718,4.718,0,0,0,1.572,20.429ZM4.714,6.286A6.286,6.286,0,1,1,11,12.571,6.286,6.286,0,0,1,4.714,6.286Zm1.571,0A4.714,4.714,0,1,0,11,1.571,4.714,4.714,0,0,0,6.286,6.286Z" fill="#002036"/>
</svg>
