<svg xmlns="http://www.w3.org/2000/svg" width="21" height="24" viewBox="0 0 21 24">
  <path id="user-headset-light" d="M15,16.5h-.22a5.2,5.2,0,0,0-1.664.319,8.145,8.145,0,0,1-5.233,0,5.176,5.176,0,0,0-1.66-.318H6a6,6,0,0,0-6,6A1.5,1.5,0,0,0,1.5,24h18A1.5,1.5,0,0,0,21,22.5,6,6,0,0,0,15,16.5Zm-13.5,6A4.5,4.5,0,0,1,6,18h.222a3.729,3.729,0,0,1,1.179.239,9.645,9.645,0,0,0,6.2,0A3.746,3.746,0,0,1,14.78,18H15a4.5,4.5,0,0,1,4.5,4.5Zm.75-12A.75.75,0,0,0,3,9.75V9A7.5,7.5,0,0,1,18,9v.75a3.754,3.754,0,0,1-3.75,3.75h-1.5a1.5,1.5,0,0,0-1.5-1.5H9.75a1.5,1.5,0,1,0,0,3h4.5A5.257,5.257,0,0,0,19.5,9.75V9a9,9,0,0,0-18,0v.75A.75.75,0,0,0,2.25,10.5Zm8.25-6a4.48,4.48,0,0,1,3.339,7.489s.006.007.008.011h.4a2.245,2.245,0,0,0,1.9-1.058,5.992,5.992,0,1,0-9.384,2.721c0-.055-.016-.107-.016-.163A2.965,2.965,0,0,1,7.169,12,4.48,4.48,0,0,1,10.5,4.5Z" fill="#002036"/>
</svg>
